<svg xmlns="http://www.w3.org/2000/svg" viewBox="0 0 32 32" fill="none">
  <circle cx="16" cy="16" r="16" fill="#000"/>
  <defs>
    <linearGradient id="sol" x1="6" y1="25" x2="26" y2="7">
      <stop stop-color="#9945FF"/>
      <stop offset="1" stop-color="#14F195"/>
    </linearGradient>
  </defs>
  <path d="M8.5 20.8a.6.6 0 01.4-.2h15.4a.3.3 0 01.2.5l-2.7 2.7a.6.6 0 01-.4.2H6.1a.3.3 0 01-.2-.5l2.6-2.7zM8.5 8.2a.6.6 0 01.4-.2h15.4a.3.3 0 01.2.5l-2.7 2.7a.6.6 0 01-.4.2H6.1a.3.3 0 01-.2-.5l2.6-2.7zM21.8 14.4a.6.6 0 00-.4-.2H6.1a.3.3 0 00-.2.5l2.6 2.7a.6.6 0 00.4.2h15.4a.3.3 0 00.2-.5l-2.7-2.7z" fill="url(#sol)"/>
</svg>
