<svg xmlns="http://www.w3.org/2000/svg" viewBox="0 0 32 32" fill="none">
  <circle cx="16" cy="16" r="16" fill="#2775CA"/>
  <path d="M16 28C9.4 28 4 22.6 4 16S9.4 4 16 4s12 5.4 12 12-5.4 12-12 12zm0-22.5C10.2 5.5 5.5 10.2 5.5 16S10.2 26.5 16 26.5 26.5 21.8 26.5 16 21.8 5.5 16 5.5z" fill="white"/>
  <path d="M20 18.4c0-1.9-1.1-2.6-3.4-2.9-1.6-.2-1.9-.6-1.9-1.3s.5-1.1 1.6-1.1c1 0 1.4.3 1.7 1.1.1.1.2.2.3.2h.7c.2 0 .3-.1.3-.3-.2-1-1-1.8-2-2v-1.2c0-.2-.1-.3-.3-.3h-.7c-.2 0-.3.1-.3.3v1.1c-1.4.2-2.3 1.1-2.3 2.3 0 1.8 1.1 2.5 3.4 2.8 1.5.3 1.9.6 1.9 1.4s-.7 1.2-1.7 1.2c-1.3 0-1.7-.6-1.9-1.2 0-.1-.2-.2-.3-.2h-.8c-.2 0-.3.1-.3.3.3 1.2 1 1.9 2.4 2.1v1.2c0 .2.1.3.3.3h.7c.2 0 .3-.1.3-.3v-1.2c1.5-.1 2.3-1.1 2.3-2.4z" fill="white"/>
</svg>
